<svg width="1280" height="128" viewBox="0 0 1280 128" fill="none" xmlns="http://www.w3.org/2000/svg">
<path d="M0 0.5V1.22638C36.392 16.4283 80.5519 20.7491 141.298 20.7491C230.545 20.7491 313.457 43.2118 406.473 103.293C449.024 130.779 496.873 131.153 543.135 121.307C575.953 114.323 606.561 102.609 633.505 92.2976L633.507 92.2971C645.01 87.8947 655.846 83.7479 665.901 80.3336C700.269 68.6638 745.705 68.8852 787.782 74.4216C830.018 79.979 870.52 91.1206 895.571 102.585C917.087 112.433 947.71 114.758 978.93 110.517C1010.06 106.289 1040.09 95.7594 1060.21 81.6422C1098.84 54.5336 1175.58 6.27529 1280 13.7963V0.5H0Z" fill="#474C33"/>
</svg>
