<svg width="544" height="605" viewBox="0 0 544 605" fill="none" xmlns="http://www.w3.org/2000/svg">
<path d="M544 423.485C502.313 420.503 471.594 438.723 455.631 449.346C445.632 456.001 431.456 460.574 417.306 462.397C403.193 464.215 388.385 463.388 377.214 458.54C367.546 454.343 351.196 450.017 333.816 447.848C316.369 445.671 298.583 445.76 285.808 449.874C282.055 451.082 277.773 452.635 273.09 454.334L273.087 454.335C261.427 458.563 247.285 463.692 232.655 466.645C211.907 470.832 188.963 470.983 168.184 458.254C129.989 434.857 96.3328 426.277 60.0695 426.277C35.6592 426.277 16.4284 424.779 0 419C0.149697 444.062 13.612 467.178 35.3828 479.703L236.797 595.576C258.639 608.141 285.531 608.141 307.372 595.576L508.787 479.703C529.252 467.929 542.375 446.796 544 423.485Z" fill="#343C41"/>
<path d="M307.276 9.42933C285.442 -3.1431 258.558 -3.14311 236.724 9.42931L35.373 125.368C13.4868 137.971 0 161.289 0 186.528V409.188C15.4666 415.321 34.2346 417.064 60.0518 417.064C97.9817 417.064 133.219 426.125 172.751 450.363C190.835 461.45 211.171 461.601 230.833 457.63C244.78 454.812 257.789 450.087 269.24 445.927C274.129 444.151 278.734 442.478 283.008 441.1C297.614 436.393 316.925 436.482 334.807 438.716C352.758 440.957 369.971 445.452 380.618 450.077C389.762 454.049 402.777 454.987 416.045 453.277C429.276 451.571 442.04 447.323 450.589 441.628C467.007 430.693 499.621 411.225 544 414.259V186.528C544 161.289 530.513 137.971 508.627 125.369L307.276 9.42933Z" fill="#DD773B"/>
<path d="M269.787 512.893L268.042 521.161H274.757V527.872H266.615L264.712 537H257.68L259.584 527.872H249.962L248.058 537H241.08L242.983 527.872H235V521.161H244.41L246.155 512.893H238.225V506.181H247.583L249.433 497.268H256.411L254.561 506.181H264.183L266.033 497.268H273.065L271.214 506.181H277.981V512.893H269.787ZM262.756 512.893H253.134L251.389 521.161H261.011L262.756 512.893Z" fill="#E1BF86"/>
<path d="M285.632 528.517C289.016 525.653 291.712 523.273 293.721 521.376C295.73 519.443 297.404 517.438 298.744 515.362C300.083 513.286 300.753 511.246 300.753 509.242C300.753 507.416 300.33 505.984 299.484 504.946C298.638 503.908 297.334 503.389 295.572 503.389C293.809 503.389 292.452 503.998 291.501 505.215C290.549 506.396 290.056 508.025 290.02 510.101H282.83C282.971 505.805 284.223 502.548 286.584 500.329C288.981 498.11 292.012 497 295.677 497C299.695 497 302.779 498.092 304.929 500.275C307.079 502.423 308.154 505.268 308.154 508.812C308.154 511.604 307.414 514.271 305.934 516.812C304.453 519.353 302.762 521.573 300.858 523.47C298.955 525.331 296.47 527.586 293.404 530.235H309V536.463H282.883V530.879L285.632 528.517Z" fill="#E1BF86"/>
<path d="M129.857 145.856C125.367 145.856 121.795 149.447 121.795 153.837C121.795 175.745 103.886 193.499 81.9058 193.499C77.4161 193.499 73.8444 197.09 73.8444 201.48C73.8444 205.871 77.4161 209.461 81.9058 209.461C88.3103 209.461 96.4154 207.377 103.555 203.994C107.66 202.048 111.475 199.657 114.401 196.997L121.795 190.274V248.234C121.795 278.86 146.914 303.858 177.808 303.858C180.25 303.858 182.23 305.84 182.23 308.286C182.23 310.732 180.25 312.714 177.808 312.714C142.094 312.714 112.951 283.816 112.951 248.234V208.992C111.125 210.096 109.235 211.1 107.338 211.998C99.3321 215.793 89.9284 218.318 81.9058 218.318C72.5976 218.318 65 210.828 65 201.48C65 192.133 72.5976 184.643 81.9058 184.643C99.0658 184.643 112.951 170.789 112.951 153.837C112.951 144.49 120.549 137 129.857 137C139.165 137 146.763 144.49 146.763 153.837V183.754H185.48C194.788 183.754 202.386 191.243 202.386 200.591C202.386 209.939 194.788 217.428 185.48 217.428H146.763V248.234C146.763 265.186 160.648 279.039 177.808 279.039C194.968 279.039 208.853 265.186 208.853 248.234C208.853 212.651 237.996 183.754 273.71 183.754C285.905 183.754 297.353 187.111 307.126 192.973L322.981 177.22L322.993 177.208C329.585 170.562 340.276 170.625 346.872 177.155C353.585 183.734 353.509 194.437 346.895 201.009L330.622 217.177C335.752 226.391 338.631 236.967 338.631 248.17C338.631 283.753 309.488 312.651 273.774 312.651C256.614 312.651 242.729 326.504 242.729 343.456C242.729 360.408 256.614 374.262 273.774 374.262C290.934 374.262 304.819 360.408 304.819 343.456C304.819 341.011 306.799 339.028 309.242 339.028C311.684 339.028 313.664 341.011 313.664 343.456C313.664 365.364 295.754 383.118 273.774 383.118C251.794 383.118 233.884 365.364 233.884 343.456C233.884 321.549 251.794 303.794 273.774 303.794C304.668 303.794 329.786 278.797 329.786 248.17C329.786 237.41 326.713 227.354 321.322 218.84L319.418 215.833L340.666 194.722C343.833 191.576 343.817 186.548 340.68 183.478L340.67 183.468L340.659 183.458C337.477 180.302 332.373 180.319 329.27 183.447L329.249 183.469L308.261 204.322L305.248 202.274C296.262 196.168 285.397 192.61 273.71 192.61C242.816 192.61 217.698 217.608 217.698 248.234C217.698 270.141 199.788 287.896 177.808 287.896C155.828 287.896 137.918 270.141 137.918 248.234V208.572H185.48C189.97 208.572 193.541 204.981 193.541 200.591C193.541 196.2 189.97 192.61 185.48 192.61H137.918V153.837C137.918 149.447 134.347 145.856 129.857 145.856Z" fill="white"/>
<path d="M233.82 248.234C233.82 226.326 251.73 208.572 273.71 208.572C295.69 208.572 313.6 226.326 313.6 248.234C313.6 270.141 295.69 287.896 273.71 287.896C242.816 287.896 217.698 312.893 217.698 343.52C217.698 374.146 242.816 399.144 273.71 399.144C304.604 399.144 329.722 374.146 329.722 343.52C329.722 327.946 338.8 314.421 351.994 307.968L356.776 305.629L358.197 310.764C360.679 319.734 365.457 328.202 372.537 335.237C383.425 346.055 397.802 351.501 412.129 351.501C426.455 351.501 440.833 346.055 451.72 335.237C454.88 332.098 454.872 327.087 451.758 324.016L451.706 323.964L451.656 323.911C448.695 320.791 443.625 320.747 440.436 323.915C424.881 339.371 399.569 339.371 384.013 323.915C368.442 308.444 368.442 283.246 384.013 267.775C391.525 260.312 401.564 256.152 412.193 256.152C422.813 256.152 432.854 260.242 440.371 267.774L440.372 267.775L440.375 267.778C443.557 270.937 448.665 270.921 451.77 267.79L451.78 267.779L451.79 267.769C454.951 264.622 454.934 259.598 451.799 256.531L451.788 256.52L451.776 256.508C441.195 246 427.135 240.189 412.193 240.189C397.247 240.189 383.183 246.003 372.601 256.516C364.03 265.032 358.89 275.549 357.011 286.593C356.6 289.004 354.316 290.625 351.908 290.215C349.501 289.804 347.882 287.516 348.292 285.106C350.468 272.319 356.436 260.101 366.372 250.23C378.609 238.071 394.911 231.333 412.193 231.333C429.465 231.333 445.76 238.064 457.994 250.21C464.696 256.783 464.627 267.468 458.035 274.04C451.435 280.686 440.734 280.611 434.142 274.061L434.14 274.059L434.131 274.05L434.12 274.039C428.29 268.195 420.51 265.008 412.193 265.008C403.903 265.008 396.102 268.24 390.243 274.061C378.158 286.069 378.158 305.621 390.243 317.629C402.35 329.658 422.099 329.658 434.206 317.629C440.72 311.157 451.464 310.912 458.017 317.758C464.639 324.345 464.535 334.982 457.95 341.524C445.327 354.066 428.676 360.357 412.129 360.357C395.582 360.357 378.93 354.066 366.308 341.524C359.55 334.81 354.593 326.955 351.445 318.572C343.622 324.175 338.567 333.298 338.567 343.52C338.567 379.102 309.424 408 273.71 408C237.996 408 208.853 379.102 208.853 343.52C208.853 307.937 237.996 279.039 273.71 279.039C290.87 279.039 304.755 265.186 304.755 248.234C304.755 231.282 290.87 217.428 273.71 217.428C256.55 217.428 242.665 231.282 242.665 248.234C242.665 250.679 240.685 252.662 238.243 252.662C235.8 252.662 233.82 250.679 233.82 248.234Z" fill="white"/>
</svg>
